<svg xmlns="http://www.w3.org/2000/svg" viewBox="0 0 64 64">
  <rect width="64" height="64" rx="14" fill="#0F0F0F"/>
  <!-- Gamepad body: rounded horizontal capsule with extended grips -->
  <path
    d="M14 23.5c-4 0-7 3.2-7 7.6 0 3.4 0 4.8 0.6 6.7 0.9 2.9 3 4.7 5.6 4.7 2.4 0 3.7-1.4 5-3.1l2.1-2.6h23.4l2.1 2.6c1.3 1.7 2.6 3.1 5 3.1 2.6 0 4.7-1.8 5.6-4.7 0.6-1.9 0.6-3.3 0.6-6.7 0-4.4-3-7.6-7-7.6H14z"
    fill="#FFC107"
  />
  <!-- D-pad cross (left side) -->
  <g fill="#0F0F0F">
    <rect x="14.5" y="31.4" width="9.2" height="2.6" rx="0.8"/>
    <rect x="17.8" y="28.1" width="2.6" height="9.2" rx="0.8"/>
  </g>
  <!-- Action buttons (right side, diamond pattern) -->
  <g fill="#0F0F0F">
    <circle cx="44.5" cy="29.6" r="1.9"/>
    <circle cx="50.1" cy="33.2" r="1.9"/>
    <circle cx="44.5" cy="36.8" r="1.9"/>
    <circle cx="38.9" cy="33.2" r="1.9"/>
  </g>
</svg>
